<svg width="30" height="30" viewBox="0 0 30 30" fill="none" xmlns="http://www.w3.org/2000/svg">
<path d="M6.75 7.8C6.24374 7.8 5.83333 8.20294 5.83333 8.7V21.3C5.83333 21.7971 6.24374 22.2 6.75 22.2H23.25C23.7563 22.2 24.1667 21.7971 24.1667 21.3V11.4C24.1667 10.9029 23.7563 10.5 23.25 10.5H16.5949C15.9384 10.5 15.3036 10.2694 14.8052 9.84999L12.6267 8.01667C12.4606 7.87685 12.249 7.8 12.0301 7.8H6.75ZM4 8.7C4 7.20883 5.23122 6 6.75 6H12.0301C12.6866 6 13.3214 6.23056 13.8198 6.65001L15.9983 8.48333C16.1644 8.62315 16.376 8.7 16.5949 8.7H23.25C24.7688 8.7 26 9.90883 26 11.4V21.3C26 22.7912 24.7688 24 23.25 24H6.75C5.23122 24 4 22.7912 4 21.3V8.7Z" fill="#181511"/>
</svg>
